<svg width="161" height="30" viewBox="0 0 161 30" fill="none" xmlns="http://www.w3.org/2000/svg">
<path d="M8.86364 0C3.97669 0 0 3.97669 0 8.86364V21.1364C0 26.0233 3.97669 30 8.86364 30H21.1364C26.0233 30 30 26.0233 30 21.1364V8.86364C30 3.97669 26.0233 0 21.1364 0H8.86364ZM8.86364 1.36364H21.1364C25.2862 1.36364 28.6364 4.71376 28.6364 8.86364V21.1364C28.6364 25.2862 25.2862 28.6364 21.1364 28.6364H8.86364C4.71376 28.6364 1.36364 25.2862 1.36364 21.1364V8.86364C1.36364 4.71376 4.71376 1.36364 8.86364 1.36364ZM23.1818 5.45455C22.8202 5.45455 22.4733 5.59821 22.2176 5.85395C21.9618 6.10968 21.8182 6.45652 21.8182 6.81818C21.8182 7.17984 21.9618 7.52669 22.2176 7.78242C22.4733 8.03815 22.8202 8.18182 23.1818 8.18182C23.5435 8.18182 23.8903 8.03815 24.1461 7.78242C24.4018 7.52669 24.5455 7.17984 24.5455 6.81818C24.5455 6.45652 24.4018 6.10968 24.1461 5.85395C23.8903 5.59821 23.5435 5.45455 23.1818 5.45455ZM15 7.5C10.8659 7.5 7.5 10.8659 7.5 15C7.5 19.1341 10.8659 22.5 15 22.5C19.1341 22.5 22.5 19.1341 22.5 15C22.5 10.8659 19.1341 7.5 15 7.5ZM15 8.86364C18.3971 8.86364 21.1364 11.6029 21.1364 15C21.1364 18.3971 18.3971 21.1364 15 21.1364C11.6029 21.1364 8.86364 18.3971 8.86364 15C8.86364 11.6029 11.6029 8.86364 15 8.86364Z" fill="#B7B2B3"/>
<path fill-rule="evenodd" clip-rule="evenodd" d="M88.6933 4.88582H102.684V1.52344H88.6933V4.88582ZM95.5894 11.6387C92.4686 11.6387 90.0984 13.2614 89.8702 16.2598H101.067C100.308 12.7013 98.4243 11.6387 95.5894 11.6387ZM96.0266 25.5457C98.9083 25.5457 101.023 24.018 101.454 22.731H107.515C105.782 27.3858 102.205 30 95.7819 30C87.5852 30 82.985 25.1072 82.985 18.6148C82.985 3.32519 109.272 2.77703 107.952 20.0424H89.8702C90.0461 23.5485 91.7702 25.5457 96.0266 25.5457ZM68.7555 24.873C72.0634 24.873 74.3786 23.8051 74.3786 20.9236C74.3786 17.9348 72.3328 16.6384 68.8985 16.6384H60.6111V24.873H68.7555ZM68.3183 12.1436C71.0707 12.1436 72.9708 11.0683 72.9708 8.57046C72.9708 5.93919 70.76 5.12695 67.7382 5.12695H60.6111V12.1436H68.3183ZM69.289 0C75.8084 0 80.3399 1.80853 80.3399 7.43577C80.3399 10.222 79.0063 12.2984 75.6379 13.6974C79.9494 14.7723 81.9896 17.5948 81.9896 21.3033C81.9896 27.1904 76.4271 30 69.7729 30H53V0H69.289Z" fill="#B7B2B3"/>
<path d="M155.919 6.91884C154.037 9.15344 151.629 10.8849 148.882 11.9292L148.764 11.9682C149.064 12.5804 149.351 13.1995 149.614 13.8257C149.714 14.0507 149.801 14.2758 149.889 14.4879C150.816 14.3858 151.893 14.3278 152.982 14.3278C155.045 14.3278 157.06 14.5359 159.006 14.933L158.813 14.9C158.793 11.8592 157.706 9.07742 155.909 6.90384L155.926 6.92485L155.919 6.91884ZM143 2.56568C144.596 4.71626 146.177 7.16691 147.599 9.71859L147.777 10.0657C150.49 9.15744 152.768 7.55401 154.473 5.46446L154.494 5.43845C152.247 3.43192 149.265 2.20559 145.998 2.20559C144.935 2.20559 143.901 2.33562 142.913 2.58069L143.001 2.56268L143 2.56568ZM133.457 12.3943C137.677 12.3723 141.754 11.8041 145.636 10.7579L145.303 10.8339C143.65 7.93412 142.08 5.51447 140.39 3.18785L140.553 3.42391C136.956 5.14537 134.324 8.39124 133.474 12.3013L133.459 12.3863L133.457 12.3943ZM136.481 23.5873C138.902 19.7043 142.493 16.7465 146.755 15.177L146.896 15.132C147.065 15.076 147.233 15.027 147.402 14.982C147.077 14.2508 146.727 13.5236 146.362 12.8074C142.473 13.9617 138.005 14.6269 133.382 14.6269C133.316 14.6269 133.251 14.6269 133.186 14.6269H133.196L133.191 15.017C133.191 15.02 133.191 15.023 133.191 15.026C133.191 18.3239 134.441 21.3297 136.492 23.5963L136.482 23.5853L136.481 23.5873ZM151.006 26.8121C150.324 23.1122 149.376 19.8533 148.143 16.7395L148.269 17.1006L148.187 17.1256C143.871 18.4719 140.358 21.3187 138.182 25.0427L138.137 25.1257C140.282 26.8141 143.023 27.8334 146.002 27.8334C147.807 27.8334 149.525 27.4593 151.081 26.7841L150.998 26.8161L151.006 26.8121ZM158.649 17.0525C157.078 16.5784 155.272 16.3053 153.403 16.3053C152.439 16.3053 151.491 16.3784 150.566 16.5184L150.67 16.5054C151.651 19.0701 152.513 22.1359 153.107 25.2967L153.161 25.6408C156.036 23.6803 158.055 20.6465 158.644 17.1286L158.654 17.0535L158.649 17.0525ZM146 30C137.716 30 131 23.2842 131 15C131 6.71579 137.716 0 146 0C154.284 0 161 6.71579 161 15C160.989 23.2792 154.279 29.988 146 30Z" fill="#B7B2B3"/>
</svg>
